REM DIRINDEX 1\6,1\2\7,1\2\8,1\2\9,1\3\10,1\3\11,1\4\12,1\4\13,1\4\14,1\5\15,1\5\16,1\5\17
REM DIRNAME cjc041,folder01,folder02,folder03,folder04,folder05,folder06,folder07,folder08,folder09,folder10,folder11,folder12,folder13,folder14,folder15,folder16
TITLE ""
FILE "3Q_j_1149-1164.mp3" MP3
  TRACK 01 AUDIO
    TITLE "12:cjc041_0747"
    INDEX 01 00:00:00
  TRACK 02 AUDIO
    TITLE "0:"
    INDEX 01 00:01:22
  TRACK 03 AUDIO
    TITLE "13:cjc041_0748"
    INDEX 01 00:01:73
  TRACK 04 AUDIO
    TITLE "0:"
    INDEX 01 00:03:70
  TRACK 05 AUDIO
    TITLE "14:cjc041_0749"
    INDEX 01 00:04:48
  TRACK 06 AUDIO
    TITLE "0:"
    INDEX 01 00:08:54
  TRACK 07 AUDIO
    TITLE "12:cjc041_0750"
    INDEX 01 00:09:36
  TRACK 08 AUDIO
    TITLE "0:"
    INDEX 01 00:11:07
  TRACK 09 AUDIO
    TITLE "13:cjc041_0751"
    INDEX 01 00:11:60
  TRACK 10 AUDIO
    TITLE "0:"
    INDEX 01 00:13:10
  TRACK 11 AUDIO
    TITLE "14:cjc041_0752"
    INDEX 01 00:13:63
  TRACK 12 AUDIO
    TITLE "0:"
    INDEX 01 00:17:35
  TRACK 13 AUDIO
    TITLE "12:cjc041_0753"
    INDEX 01 00:18:19
  TRACK 14 AUDIO
    TITLE "0:"
    INDEX 01 00:20:06
  TRACK 15 AUDIO
    TITLE "13:cjc041_0754"
    INDEX 01 00:20:61
  TRACK 16 AUDIO
    TITLE "0:"
    INDEX 01 00:22:48
  TRACK 17 AUDIO
    TITLE "14:cjc041_0755"
    INDEX 01 00:23:28
  TRACK 18 AUDIO
    TITLE "0:"
    INDEX 01 00:27:28
  TRACK 19 AUDIO
    TITLE "12:cjc041_0756"
    INDEX 01 00:28:13
  TRACK 20 AUDIO
    TITLE "0:"
    INDEX 01 00:29:29
  TRACK 21 AUDIO
    TITLE "13:cjc041_0757"
    INDEX 01 00:30:12
  TRACK 22 AUDIO
    TITLE "0:"
    INDEX 01 00:32:25
  TRACK 23 AUDIO
    TITLE "14:cjc041_0758"
    INDEX 01 00:32:72
  TRACK 24 AUDIO
    TITLE "0:"
    INDEX 01 00:35:49
  TRACK 25 AUDIO
    TITLE "12:cjc041_0759"
    INDEX 01 00:36:27
  TRACK 26 AUDIO
    TITLE "0:"
    INDEX 01 00:37:59
  TRACK 27 AUDIO
    TITLE "13:cjc041_0760"
    INDEX 01 00:38:39
  TRACK 28 AUDIO
    TITLE "0:"
    INDEX 01 00:40:50
  TRACK 29 AUDIO
    TITLE "14:cjc041_0761"
    INDEX 01 00:41:30
  TRACK 30 AUDIO
    TITLE "0:"
    INDEX 01 00:45:59
  TRACK 31 AUDIO
    TITLE "12:cjc041_0762"
    INDEX 01 00:46:43
  TRACK 32 AUDIO
    TITLE "0:"
    INDEX 01 00:48:30
  TRACK 33 AUDIO
    TITLE "13:cjc041_0763"
    INDEX 01 00:49:08
  TRACK 34 AUDIO
    TITLE "0:"
    INDEX 01 00:52:06
  TRACK 35 AUDIO
    TITLE "14:cjc041_0764"
    INDEX 01 00:52:63
  TRACK 36 AUDIO
    TITLE "0:"
    INDEX 01 00:56:35
  TRACK 37 AUDIO
    TITLE "12:cjc041_0765"
    INDEX 01 00:57:19
  TRACK 38 AUDIO
    TITLE "0:"
    INDEX 01 00:59:00
  TRACK 39 AUDIO
    TITLE "13:cjc041_0766"
    INDEX 01 00:59:59
  TRACK 40 AUDIO
    TITLE "0:"
    INDEX 01 01:01:21
  TRACK 41 AUDIO
    TITLE "14:cjc041_0767"
    INDEX 01 01:02:03
  TRACK 42 AUDIO
    TITLE "0:"
    INDEX 01 01:05:01
  TRACK 43 AUDIO
    TITLE "12:cjc041_0768"
    INDEX 01 01:05:52
  TRACK 44 AUDIO
    TITLE "0:"
    INDEX 01 01:07:27
  TRACK 45 AUDIO
    TITLE "13:cjc041_0769"
    INDEX 01 01:08:09
  TRACK 46 AUDIO
    TITLE "0:"
    INDEX 01 01:10:08
  TRACK 47 AUDIO
    TITLE "14:cjc041_0770"
    INDEX 01 01:10:59
  TRACK 48 AUDIO
    TITLE "0:"
    INDEX 01 01:15:21
  TRACK 49 AUDIO
    TITLE "12:cjc041_0771"
    INDEX 01 01:16:09
  TRACK 50 AUDIO
    TITLE "0:"
    INDEX 01 01:17:47
  TRACK 51 AUDIO
    TITLE "13:cjc041_0772"
    INDEX 01 01:18:21
  TRACK 52 AUDIO
    TITLE "0:"
    INDEX 01 01:19:74
  TRACK 53 AUDIO
    TITLE "14:cjc041_0773"
    INDEX 01 01:20:49
  TRACK 54 AUDIO
    TITLE "0:"
    INDEX 01 01:24:14
  TRACK 55 AUDIO
    TITLE "12:cjc041_0774"
    INDEX 01 01:24:65
  TRACK 56 AUDIO
    TITLE "0:"
    INDEX 01 01:26:68
  TRACK 57 AUDIO
    TITLE "13:cjc041_0775"
    INDEX 01 01:27:50
  TRACK 58 AUDIO
    TITLE "0:"
    INDEX 01 01:30:11
  TRACK 59 AUDIO
    TITLE "14:cjc041_0776"
    INDEX 01 01:30:67
  TRACK 60 AUDIO
    TITLE "0:"
    INDEX 01 01:34:12
  TRACK 61 AUDIO
    TITLE "12:cjc041_0777"
    INDEX 01 01:34:71
  TRACK 62 AUDIO
    TITLE "0:"
    INDEX 01 01:37:09
  TRACK 63 AUDIO
    TITLE "13:cjc041_0778"
    INDEX 01 01:37:68
  TRACK 64 AUDIO
    TITLE "0:"
    INDEX 01 01:39:74
  TRACK 65 AUDIO
    TITLE "14:cjc041_0779"
    INDEX 01 01:40:52
  TRACK 66 AUDIO
    TITLE "0:"
    INDEX 01 01:43:41
  TRACK 67 AUDIO
    TITLE "12:cjc041_0780"
    INDEX 01 01:44:21
  TRACK 68 AUDIO
    TITLE "0:"
    INDEX 01 01:46:18
  TRACK 69 AUDIO
    TITLE "13:cjc041_0781"
    INDEX 01 01:46:74
  TRACK 70 AUDIO
    TITLE "0:"
    INDEX 01 01:49:47
  TRACK 71 AUDIO
    TITLE "14:cjc041_0782"
    INDEX 01 01:50:25
  TRACK 72 AUDIO
    TITLE "0:"
    INDEX 01 01:53:57
  TRACK 73 AUDIO
    TITLE "12:cjc041_0783"
    INDEX 01 01:54:33
  TRACK 74 AUDIO
    TITLE "0:"
    INDEX 01 01:55:65
  TRACK 75 AUDIO
    TITLE "13:cjc041_0784"
    INDEX 01 01:56:47
  TRACK 76 AUDIO
    TITLE "0:"
    INDEX 01 01:58:38
  TRACK 77 AUDIO
    TITLE "14:cjc041_0785"
    INDEX 01 01:59:12
  TRACK 78 AUDIO
    TITLE "0:"
    INDEX 01 02:02:54
  TRACK 79 AUDIO
    TITLE "12:cjc041_0786"
    INDEX 01 02:03:36
  TRACK 80 AUDIO
    TITLE "0:"
    INDEX 01 02:05:19
  TRACK 81 AUDIO
    TITLE "13:cjc041_0787"
    INDEX 01 02:06:01
  TRACK 82 AUDIO
    TITLE "0:"
    INDEX 01 02:07:47
  TRACK 83 AUDIO
    TITLE "14:cjc041_0788"
    INDEX 01 02:08:27
  TRACK 84 AUDIO
    TITLE "0:"
    INDEX 01 02:11:57
  TRACK 85 AUDIO
    TITLE "12:cjc041_0789"
    INDEX 01 02:12:42
  TRACK 86 AUDIO
    TITLE "0:"
    INDEX 01 02:14:08
  TRACK 87 AUDIO
    TITLE "13:cjc041_0790"
    INDEX 01 02:14:67
  TRACK 88 AUDIO
    TITLE "0:"
    INDEX 01 02:16:38
  TRACK 89 AUDIO
    TITLE "14:cjc041_0791"
    INDEX 01 02:17:16
  TRACK 90 AUDIO
    TITLE "0:"
    INDEX 01 02:21:57
  TRACK 91 AUDIO
    TITLE "12:cjc041_0792"
    INDEX 01 02:22:37
  TRACK 92 AUDIO
    TITLE "0:"
    INDEX 01 02:24:30
  TRACK 93 AUDIO
    TITLE "13:cjc041_0793"
    INDEX 01 02:25:10
  TRACK 94 AUDIO
    TITLE "0:"
    INDEX 01 02:27:18
  TRACK 95 AUDIO
    TITLE "14:cjc041_0794"
    INDEX 01 02:27:73
  TRACK 96 AUDIO
    TITLE "0:"
    INDEX 01 02:31:59
